<svg id="Layer_1" data-name="Layer 1" xmlns="http://www.w3.org/2000/svg" viewBox="0 0 69.4 32.95"><defs><style>.cls-1{fill:#f2f2f2;}</style></defs><title>app-logo-light</title><path class="cls-1" d="M19.1,12.3H10.88V9.43A13.79,13.79,0,0,0,10.64,6a1,1,0,0,0-1.11-.69,1,1,0,0,0-1,.59,9.22,9.22,0,0,0-.28,3V24.12a8.72,8.72,0,0,0,.28,2.8,1.06,1.06,0,0,0,1.09.68,1.21,1.21,0,0,0,1.22-.76,8.81,8.81,0,0,0,.32-3V20.12H9.47V15.31H19.1v17H13.93L13.17,30a5.69,5.69,0,0,1-2.12,2.2A6,6,0,0,1,8,33a7.88,7.88,0,0,1-3.88-1,7.39,7.39,0,0,1-2.74-2.49A7.85,7.85,0,0,1,.23,26.34,38.79,38.79,0,0,1,0,21.45v-9.4A31.13,31.13,0,0,1,.49,5.47a6.73,6.73,0,0,1,2.8-3.76A9.82,9.82,0,0,1,9.28,0a11.22,11.22,0,0,1,6,1.48A7,7,0,0,1,18.38,5a18.75,18.75,0,0,1,.72,5.93Z"/><path class="cls-1" d="M30.51.66V32.29H22.29V.66Z"/><path class="cls-1" d="M47.56.66V7L41.44,26h6.12v6.33H32.4V27.7L38.73,7H33.14V.66Z"/><path class="cls-1" d="M64.7.66l4.7,31.63H61l-.44-5.69H57.62l-.5,5.69h-8.5L52.82.66ZM60.34,21c-.41-3.59-.83-8-1.25-13.29Q57.83,16.8,57.51,21Z"/></svg>